<?xml version="1.0" encoding="UTF-8"?>
<svg version="1.1" xmlns="http://www.w3.org/2000/svg" width="260" height="280">
<path d="M0 0 C85.8 0 171.6 0 260 0 C260 92.4 260 184.8 260 280 C174.2 280 88.4 280 0 280 C0 187.6 0 95.2 0 0 Z " fill="#FEFEFE" transform="translate(0,0)"/>
<path d="M0 0 C1.8125 1.125 1.8125 1.125 3 3 C3.33365471 6.83702911 2.87916665 10.26354175 2 14 C2.99 13.34 3.98 12.68 5 12 C9.07490752 11.66042437 10.53001271 11.68667514 14 14 C14.886875 13.34 15.77375 12.68 16.6875 12 C19.97506886 10.01505276 21.28458576 9.38076429 25 10 C25.66 10.66 26.32 11.32 27 12 C26.86434451 19.63288201 23.77294262 26.26084845 20.9375 33.25 C20.00298768 35.56524472 19.07432856 37.88286307 18.15234375 40.203125 C17.5334729 41.72921387 17.5334729 41.72921387 16.90209961 43.28613281 C15.78971084 46.15598667 15.78971084 46.15598667 16 50 C24.05285898 50.24160565 31.49568789 49.66421739 39.390625 48.1015625 C40.4200824 47.90654144 41.44953979 47.71152039 42.51019287 47.5105896 C45.75885269 46.89229191 49.00430603 46.25866008 52.25 45.625 C54.43992218 45.20737789 56.63002532 44.79070356 58.8203125 44.375 C69.67801346 42.36368098 69.67801346 42.36368098 80.42871094 39.86474609 C84 39 84 39 88 39 C88.38133299 40.9914056 88.71325582 42.99279077 89 45 C86.95301586 47.04698414 82.69588759 46.70045693 80 47 C80.33 47.33 80.66 47.66 81 48 C81.3125 51.375 81.3125 51.375 81 55 C78.89172636 57.42061048 77.59654522 57.9127007 74.4375 58.375 C72 58 72 58 70.25 56.875 C68.56014759 54.34022139 68.33269391 51.99424517 68 49 C67.25878906 49.27585938 66.51757812 49.55171875 65.75390625 49.8359375 C60.55026216 51.4495545 55.26943538 52.52206207 49.9375 53.625 C48.86177734 53.85445312 47.78605469 54.08390625 46.67773438 54.3203125 C45.63810547 54.536875 44.59847656 54.7534375 43.52734375 54.9765625 C42.58624756 55.17330566 41.64515137 55.37004883 40.67553711 55.57275391 C38.04156113 55.99336327 35.66079068 56.18697605 33 56 C32.525625 55.505 32.05125 55.01 31.5625 54.5 C30.00480251 52.72503405 30.00480251 52.72503405 27.125 52.5 C23.78149445 52.71095203 23.78149445 52.71095203 21.5625 55.5625 C19 58 19 58 15.4375 58.0625 C11.69524596 56.9058033 10.14785335 56.26473709 8 53 C7.51794283 47.35504064 8.67834096 43.25011775 10.75 38.125 C11.15835083 37.07554199 11.15835083 37.07554199 11.57495117 36.00488281 C13.32808588 31.54160566 15.18394926 27.13090873 17.23828125 22.796875 C18.04663868 20.88998055 18.54893034 19.01864838 19 17 C10.4467965 21.66538373 8.4256997 30.15407165 5.3125 38.9375 C4.70688689 40.63499418 4.09894165 42.33165876 3.48828125 44.02734375 C3.22571533 44.76718506 2.96314941 45.50702637 2.69262695 46.26928711 C2 48 2 48 1 49 C-1.33297433 49.04092937 -3.66705225 49.04241723 -6 49 C1.53163011 27.18621465 1.53163011 27.18621465 5 19 C4.21625 19.495 3.4325 19.99 2.625 20.5 C0 22 0 22 -2 22 C-2.17668213 22.54019775 -2.35336426 23.08039551 -2.53540039 23.63696289 C-4.39618013 29.27868224 -6.34904893 34.876015 -8.4375 40.4375 C-8.72431641 41.23865234 -9.01113281 42.03980469 -9.30664062 42.86523438 C-9.74073242 44.01282227 -9.74073242 44.01282227 -10.18359375 45.18359375 C-10.43681396 45.86993896 -10.69003418 46.55628418 -10.95092773 47.26342773 C-12.32490256 49.5378245 -13.51594703 50.11464276 -16 51 C-17.32 51 -18.64 51 -20 51 C-17.6604086 42.50621184 -14.54809541 34.33312375 -11.375 26.125 C-10.61915995 24.16541468 -9.86442825 22.20542772 -9.11245728 20.24435425 C-8.43612862 18.48107812 -7.7560171 16.71925432 -7.07568359 14.95751953 C-6.23107173 12.63531615 -5.52673159 10.40886035 -5 8 C-5.68835938 8.16242188 -6.37671875 8.32484375 -7.0859375 8.4921875 C-10.31691862 9.0552271 -13.34642981 9.13253694 -16.625 9.125 C-17.75164062 9.12757812 -18.87828125 9.13015625 -20.0390625 9.1328125 C-23 9 -23 9 -26 8 C-25.67 6.02 -25.34 4.04 -25 2 C-23.89140625 1.93941406 -22.7828125 1.87882812 -21.640625 1.81640625 C-20.1770718 1.73197049 -18.71353075 1.64732401 -17.25 1.5625 C-16.15558594 1.50352539 -16.15558594 1.50352539 -15.0390625 1.44335938 C-9.99768357 1.14545971 -5.0144396 -0.5143015 0 0 Z " fill="#1071B1" transform="translate(98,97)"/>
<path d="M0 0 C2.31 0 4.62 0 7 0 C6.67 1.32 6.34 2.64 6 4 C6.99 4.495 6.99 4.495 8 5 C7.67 6.32 7.34 7.64 7 9 C5.68 9 4.36 9 3 9 C2.9175 9.78375 2.835 10.5675 2.75 11.375 C1.92470584 15.3639218 0.54065843 18.80427653 -1.0625 22.53515625 C-2.00610138 25.01604155 -2.5530495 27.388133 -3 30 C0.93548431 26.93906776 3.68116787 24.50884026 6 20 C6.99 20.33 7.98 20.66 9 21 C6.36419884 27.3698528 3.34543721 31.88045545 -3 35 C-6.27169922 35.31345621 -7.52414211 35.30866458 -10.3125 33.5 C-10.869375 33.005 -11.42625 32.51 -12 32 C-12 32.66 -12 33.32 -12 34 C-15.65653827 36.43769218 -17.69000101 36.23944439 -22 36 C-23 35 -23 35 -23.1875 31.375 C-23.15040203 27.26454534 -22.29581353 23.88744058 -21 20 C-21.66 20 -22.32 20 -23 20 C-23.3403125 20.78503906 -23.680625 21.57007812 -24.03125 22.37890625 C-27.17864368 29.20104947 -30.25523999 35.21095529 -37 39 C-40.8125 39.4375 -40.8125 39.4375 -44 39 C-46.92417515 38.75349371 -46.92417515 38.75349371 -48.875 40.0625 C-51.63152458 41.27861379 -53.15976669 40.84439369 -56 40 C-57.59468098 38.40531902 -57.28538976 36.77173718 -57.375 34.5625 C-57.30228351 27.32201556 -54.44256639 21.63045612 -49.5625 16.375 C-46.42876734 14.69348491 -44.51347204 14.62622638 -41 15 C-40.34 15.20625 -39.68 15.4125 -39 15.625 C-36.00301522 16.18693465 -33.78708197 15.07682713 -31 14 C-33.19037174 20.72045875 -35.55765661 27.36724003 -38 34 C-33.39475764 31.74112465 -31.58283794 29.23799702 -29.1875 24.75 C-28.58292969 23.65171875 -27.97835937 22.5534375 -27.35546875 21.421875 C-25.87379824 17.6814042 -25.84945252 14.98222361 -26 11 C-24.75 9 -24.75 9 -23 8 C-20.8125 8.3125 -20.8125 8.3125 -19 9 C-19.33 10.65 -19.66 12.3 -20 14 C-19.21625 14.28875 -18.4325 14.5775 -17.625 14.875 C-15 16 -15 16 -13 18 C-13.41720949 22.48500198 -14.71058183 26.70193944 -16 31 C-11.50023898 27.05979475 -9.41513933 23.19021173 -7.1875 17.6875 C-6.87619141 16.94693359 -6.56488281 16.20636719 -6.24414062 15.44335938 C-5.48514932 13.63345704 -4.741027 11.81733135 -4 10 C-4.99 10 -5.98 10 -7 10 C-6.67 9.01 -6.34 8.02 -6 7 C-5.01 6.67 -4.02 6.34 -3 6 C-1.29144978 2.99992729 -1.29144978 2.99992729 0 0 Z " fill="#0B70B2" transform="translate(179,101)"/>
<path d="M0 0 C0.33 1.32 0.66 2.64 1 4 C1.66 4 2.32 4 3 4 C2.67 4.94875 2.34 5.8975 2 6.875 C0.6355542 11.55447256 0.82500659 16.16823759 1 21 C4.55293493 22.14947895 5.79976669 22.0868937 9.3125 20.5625 C10.199375 20.046875 11.08625 19.53125 12 19 C12.33 19.33 12.66 19.66 13 20 C16.22191261 20.45106776 18.79581285 20.59944118 21.7734375 19.1171875 C27.80000387 14.56317581 30.76247678 7.63249437 34 1 C34.99 1.33 35.98 1.66 37 2 C36.67 2.99 36.34 3.98 36 5 C34.8134874 9.08594833 34.85134821 12.76342394 35 17 C40.08303686 17.11320856 40.08303686 17.11320856 45 16 C45 15.34 45 14.68 45 14 C45.48984375 14.32742187 45.9796875 14.65484375 46.484375 14.9921875 C50.04269563 16.41772589 53.48203011 16.21154348 57.25 16.125 C57.99507813 16.11597656 58.74015625 16.10695312 59.5078125 16.09765625 C61.33868059 16.07418358 63.16938238 16.03831525 65 16 C64.67 17.32 64.34 18.64 64 20 C64 19.01 64 18.02 64 17 C62.85273438 17.27972656 61.70546875 17.55945313 60.5234375 17.84765625 C48.71237604 20.6602115 36.83291908 23.08685338 24.90313721 25.33468628 C23.23278812 25.65037948 21.56312948 25.9697506 19.89422607 26.29299927 C10.51806821 28.10285506 1.60219335 29.54372153 -8 29 C-9.21043161 24.14374006 -8.23004145 21.21892984 -6.25 16.75 C-5.68814382 15.42140023 -5.12823999 14.0919731 -4.5703125 12.76171875 C-4.29864258 12.12024902 -4.02697266 11.4787793 -3.74707031 10.81787109 C-2.29195345 7.27708672 -1.1520223 3.6480706 0 0 Z " fill="#F1FBFD" transform="translate(122,119)"/>
<path d="M0 0 C2.31 0 4.62 0 7 0 C6.67 1.32 6.34 2.64 6 4 C6.66 4.33 7.32 4.66 8 5 C7.67 6.32 7.34 7.64 7 9 C5.68 9 4.36 9 3 9 C2.9175 9.78375 2.835 10.5675 2.75 11.375 C1.92470584 15.3639218 0.54065843 18.80427653 -1.0625 22.53515625 C-2.00610138 25.01604155 -2.5530495 27.388133 -3 30 C0.93548431 26.93906776 3.68116787 24.50884026 6 20 C6.99 20.33 7.98 20.66 9 21 C6.36419884 27.3698528 3.34543721 31.88045545 -3 35 C-6.27169922 35.31345621 -7.52414211 35.30866458 -10.3125 33.5 C-10.869375 33.005 -11.42625 32.51 -12 32 C-12 32.66 -12 33.32 -12 34 C-15.65653827 36.43769218 -17.69000101 36.23944439 -22 36 C-23 35 -23 35 -23.0625 31.9375 C-23.041875 30.968125 -23.02125 29.99875 -23 29 C-22.67 29 -22.34 29 -22 29 C-22 30.65 -22 32.3 -22 34 C-20.68 34 -19.36 34 -18 34 C-17.96261719 33.31292969 -17.92523438 32.62585938 -17.88671875 31.91796875 C-17.82097656 31.01691406 -17.75523437 30.11585938 -17.6875 29.1875 C-17.62949219 28.29417969 -17.57148438 27.40085938 -17.51171875 26.48046875 C-17 24 -17 24 -14 21 C-14.66 24.3 -15.32 27.6 -16 31 C-11.50023898 27.05979475 -9.41513933 23.19021173 -7.1875 17.6875 C-6.87619141 16.94693359 -6.56488281 16.20636719 -6.24414062 15.44335938 C-5.48514932 13.63345704 -4.741027 11.81733135 -4 10 C-4.99 10 -5.98 10 -7 10 C-6.67 9.01 -6.34 8.02 -6 7 C-5.01 6.67 -4.02 6.34 -3 6 C-1.29144978 2.99992729 -1.29144978 2.99992729 0 0 Z " fill="#1271AE" transform="translate(179,101)"/>
<path d="M0 0 C-0.66 1.98 -1.32 3.96 -2 6 C-2.66 5.34 -3.32 4.68 -4 4 C-7.58343976 3.83322718 -7.58343976 3.83322718 -11 4 C-11 3.34 -11 2.68 -11 2 C-12.32 2 -13.64 2 -15 2 C-15 2.66 -15 3.32 -15 4 C-14.01 4.66 -13.02 5.32 -12 6 C-10.69921875 7.875 -10.69921875 7.875 -10 10 C-10.64453125 12 -10.64453125 12 -11.8125 14 C-13.34095015 16.67087535 -14.3726031 18.97770094 -15 22 C-13.68 22.66 -12.36 23.32 -11 24 C-11.99 24 -12.98 24 -14 24 C-15.423125 24.7734375 -15.423125 24.7734375 -16.875 25.5625 C-20.28535778 27.13126458 -21.51943917 27.19333514 -25 26 C-26.59468098 24.40531902 -26.28538976 22.77173718 -26.375 20.5625 C-26.30228351 13.32201556 -23.44256639 7.63045612 -18.5625 2.375 C-14.85444791 0.38531351 -11.87458678 0.44865095 -7.875 1.625 C-4.74823282 2.25035344 -3.09166578 0 0 0 Z " fill="#1671AD" transform="translate(148,115)"/>
<path d="M0 0 C4.28549235 1.36771033 4.28549235 1.36771033 5.9375 3.9375 C6.52739164 7.22403916 6.21787501 8.51132999 4.375 11.3125 C1.9375 12.9375 1.9375 12.9375 -1.6875 12.875 C-5.0625 11.9375 -5.0625 11.9375 -7.0625 8.9375 C-7.5728118 5.62047328 -7.34949603 4.35695574 -5.4375 1.5625 C-3.0625 -0.0625 -3.0625 -0.0625 0 0 Z " fill="#0A70B3" transform="translate(125.0625,150.0625)"/>
<path d="M0 0 C0.70125 0.00515625 1.4025 0.0103125 2.125 0.015625 C2.82625 0.01046875 3.5275 0.0053125 4.25 0 C6.125 0.265625 6.125 0.265625 8.125 2.265625 C8.5 5.703125 8.5 5.703125 8.125 9.265625 C6.01672636 11.68623548 4.72154522 12.1783257 1.5625 12.640625 C-0.875 12.265625 -0.875 12.265625 -2.6875 11.203125 C-4.521921 8.21012231 -4.18607576 5.68745837 -3.875 2.265625 C-1.875 0.265625 -1.875 0.265625 0 0 Z " fill="#0C71B1" transform="translate(170.875,142.734375)"/>
<path d="M0 0 C0.80308594 -0.02578125 1.60617188 -0.0515625 2.43359375 -0.078125 C3.48740234 0.08429688 3.48740234 0.08429688 4.5625 0.25 C5.2225 1.24 5.8825 2.23 6.5625 3.25 C7.2225 2.26 7.8825 1.27 8.5625 0.25 C9.2225 0.25 9.8825 0.25 10.5625 0.25 C11.1875 3.125 11.1875 3.125 11.5625 6.25 C10.9025 6.91 10.2425 7.57 9.5625 8.25 C9.5625 7.59 9.5625 6.93 9.5625 6.25 C8.840625 6.600625 8.11875 6.95125 7.375 7.3125 C4.21794376 8.36485208 2.71960176 8.10327075 -0.4375 7.25 C-2.5120356 7.1009288 -2.5120356 7.1009288 -4.4375 8.25 C-4.81813221 5.9239143 -5.15019945 3.58944736 -5.4375 1.25 C-3.84882134 -0.33867866 -2.19060484 0.04205961 0 0 Z " fill="#8A8A8A" transform="translate(171.4375,266.75)"/>
<path d="M0 0 C0.48984375 0.32742187 0.9796875 0.65484375 1.484375 0.9921875 C5.04269563 2.41772589 8.48203011 2.21154348 12.25 2.125 C12.99507812 2.11597656 13.74015625 2.10695312 14.5078125 2.09765625 C16.33868059 2.07418358 18.16938238 2.03831525 20 2 C19.67 3.32 19.34 4.64 19 6 C19 5.01 19 4.02 19 3 C18.0553186 3.21934204 18.0553186 3.21934204 17.09155273 3.44311523 C14.20755926 4.11093443 11.32254749 4.77424969 8.4375 5.4375 C6.9515332 5.78264648 6.9515332 5.78264648 5.43554688 6.13476562 C0.30074303 7.3118469 -4.76978006 8.36181047 -10 9 C-10 8.34 -10 7.68 -10 7 C-9.34 6.67 -8.68 6.34 -8 6 C-8.33 5.34 -8.66 4.68 -9 4 C-6.03 3.34 -3.06 2.68 0 2 C0 1.34 0 0.68 0 0 Z " fill="#CEECF8" transform="translate(167,133)"/>
<path d="M0 0 C0.66 0 1.32 0 2 0 C2.33 1.32 2.66 2.64 3 4 C3.66 3.67 4.32 3.34 5 3 C5 4.32 5 5.64 5 7 C5.99 7.66 6.98 8.32 8 9 C7.195625 8.814375 6.39125 8.62875 5.5625 8.4375 C4.716875 8.293125 3.87125 8.14875 3 8 C2.67 8.33 2.34 8.66 2 9 C0.00045254 9.04254356 -2.00041636 9.04080783 -4 9 C-4.66 9 -5.32 9 -6 9 C-7.32 9 -8.64 9 -10 9 C-10.625 7.125 -10.625 7.125 -11 5 C-10.34 4.34 -9.68 3.68 -9 3 C-7.328451 3.30791692 -5.66194453 3.64386903 -4 4 C-1.76832815 3.63143136 -1.76832815 3.63143136 0 3 C0 2.01 0 1.02 0 0 Z " fill="#999999" transform="translate(109,266)"/>
<path d="M0 0 C0.38133299 1.9914056 0.71325582 3.99279077 1 6 C-1.09570947 8.09570947 -5.5284417 7.37238899 -8.4375 7.5 C-13.88504143 7.50937661 -13.88504143 7.50937661 -19 9 C-18.67 8.01 -18.34 7.02 -18 6 C-15.29120665 4.64560332 -12.99066732 4.93498549 -10 5 C-10 4.34 -10 3.68 -10 3 C-6.84916414 -0.15083586 -4.41812253 0 0 0 Z " fill="#3389BE" transform="translate(186,136)"/>
<path d="M0 0 C0.99 0 1.98 0 3 0 C3 3.3 3 6.6 3 10 C3.99 10.33 4.98 10.66 6 11 C5.67 12.32 5.34 13.64 5 15 C3.0085944 15.38133299 1.00720923 15.71325582 -1 16 C-2.63837345 14.36162655 -2.17085921 12.49983422 -2.1875 10.25 C-2.15991165 6.3986669 -1.84539629 3.46011805 0 0 Z " fill="#066EB3" transform="translate(125,126)"/>
<path d="M0 0 C-0.72008406 4.60853797 -2.31295939 8.67237409 -4 13 C-5.32 12.67 -6.64 12.34 -8 12 C-8.66 13.65 -9.32 15.3 -10 17 C-10.66 16.67 -11.32 16.34 -12 16 C-11.54554036 14.58208592 -11.08625056 13.16571954 -10.625 11.75 C-10.24214844 10.56664063 -10.24214844 10.56664063 -9.8515625 9.359375 C-7.98391158 4.18478255 -6.09106334 0 0 0 Z " fill="#E4F6FB" transform="translate(103,116)"/>
<path d="M0 0 C-0.33 1.32 -0.66 2.64 -1 4 C-1.66 4 -2.32 4 -3 4 C-7.23673911 7.00671808 -8.0480843 10.80322715 -9.33984375 15.58203125 C-10.03989661 18.1461302 -10.94350194 20.56192755 -12 23 C-12.66 23 -13.32 23 -14 23 C-13.938125 23.721875 -13.87625 24.44375 -13.8125 25.1875 C-14.04963581 28.7445372 -14.58176569 30.35505622 -17 33 C-19.79535909 33.4410823 -22.14434251 33.23407029 -25 33 C-25 32.67 -25 32.34 -25 32 C-21.535 31.505 -21.535 31.505 -18 31 C-17.63032104 29.95658447 -17.63032104 29.95658447 -17.25317383 28.89208984 C-16.11923113 25.71493324 -14.96608541 22.54507465 -13.8125 19.375 C-13.42513672 18.28058594 -13.03777344 17.18617188 -12.63867188 16.05859375 C-6.75052083 0 -6.75052083 0 0 0 Z " fill="#D6F1F9" transform="translate(117,114)"/>
<path d="M0 0 C0.33 0.99 0.66 1.98 1 3 C2.98 3 4.96 3 7 3 C7 4.65 7 6.3 7 8 C7.66 8 8.32 8 9 8 C9 6.35 9 4.7 9 3 C9.99 3 10.98 3 12 3 C12.33 2.34 12.66 1.68 13 1 C13 1.66 13 2.32 13 3 C13.99 3 14.98 3 16 3 C16.33 2.34 16.66 1.68 17 1 C17 1.66 17 2.32 17 3 C17.66 3.33 18.32 3.66 19 4 C18.34 4 17.68 4 17 4 C17 5.32 17 6.64 17 8 C17.66 8.33 18.32 8.66 19 9 C18.01 9 17.02 9 16 9 C16 7.35 16 5.7 16 4 C15.01 4 14.02 4 13 4 C13 5.32 13 6.64 13 8 C13.66 8.33 14.32 8.66 15 9 C11.04 9 7.08 9 3 9 C3 7.35 3 5.7 3 4 C2.34 4 1.68 4 1 4 C1 5.65 1 7.3 1 9 C0.67 9 0.34 9 0 9 C0 6.03 0 3.06 0 0 Z " fill="#737373" transform="translate(60,266)"/>
<path d="M0 0 C0.66 0.66 1.32 1.32 2 2 C1.96712417 4.72869407 1.43602229 7.2966618 1 10 C0.67 10 0.34 10 0 10 C0 7.36 0 4.72 0 2 C-1.98 2.66 -3.96 3.32 -6 4 C-6 4.99 -6 5.98 -6 7 C-7.65 7.66 -9.3 8.32 -11 9 C-11 8.01 -11 7.02 -11 6 C-11.62648438 5.93941406 -12.25296875 5.87882812 -12.8984375 5.81640625 C-13.71570313 5.73261719 -14.53296875 5.64882812 -15.375 5.5625 C-16.59316406 5.44068359 -16.59316406 5.44068359 -17.8359375 5.31640625 C-20 5 -20 5 -22 4 C-20 2 -20 2 -17.0625 1.75 C-14 2 -14 2 -11 4 C-10.113125 3.34 -9.22625 2.68 -8.3125 2 C-5.02493114 0.01505276 -3.71541424 -0.61923571 0 0 Z " fill="#1D72AA" transform="translate(123,107)"/>
<path d="M0 0 C2.0625 0.4375 2.0625 0.4375 4 1 C1.21548117 10.87238494 1.21548117 10.87238494 -3 14 C-3.66 14 -4.32 14 -5 14 C-5.45772527 8.27843418 -4.54034087 5.50588838 -1 1 C-0.67 0.67 -0.34 0.34 0 0 Z " fill="#E2F6FC" transform="translate(134,122)"/>
<path d="M0 0 C0.78375 0.04125 1.5675 0.0825 2.375 0.125 C2.375 3.095 2.375 6.065 2.375 9.125 C1.715 9.125 1.055 9.125 0.375 9.125 C0.045 10.775 -0.285 12.425 -0.625 14.125 C-1.615 14.125 -2.605 14.125 -3.625 14.125 C-3.41875 13.073125 -3.2125 12.02125 -3 10.9375 C-2.62536896 7.12875113 -2.90869933 5.45664248 -4.625 2.125 C-2.625 0.125 -2.625 0.125 0 0 Z M-5.625 14.125 C-4.635 14.62 -4.635 14.62 -3.625 15.125 C-4.615 15.62 -4.615 15.62 -5.625 16.125 C-5.625 15.465 -5.625 14.805 -5.625 14.125 Z " fill="#026EB5" transform="translate(120.625,108.875)"/>
<path d="M0 0 C1.12109375 1.6953125 1.12109375 1.6953125 2 4 C0.04975321 11.07694343 -4.25916564 15.72251557 -10 20 C-10 19.01 -10 18.02 -10 17 C-10.66 16.67 -11.32 16.34 -12 16 C-11.25363281 15.64292969 -10.50726563 15.28585938 -9.73828125 14.91796875 C-6.2782301 12.49445218 -5.08192001 10.06419454 -3.1875 6.3125 C-2.72053711 5.40274414 -2.72053711 5.40274414 -2.24414062 4.47460938 C-1.48391416 2.98924381 -0.74024538 1.49542366 0 0 Z " fill="#1D70A8" transform="translate(153,119)"/>
<path d="M0 0 C2.01822917 0.06510417 4.03645833 0.13020833 6.0546875 0.1953125 C6.3846875 1.8453125 6.7146875 3.4953125 7.0546875 5.1953125 C3.64905898 5.97374188 0.54702994 6.29509371 -2.9453125 6.1953125 C-3.5703125 4.3203125 -3.5703125 4.3203125 -3.9453125 2.1953125 C-1.9453125 0.1953125 -1.9453125 0.1953125 0 0 Z " fill="#909090" transform="translate(121.9453125,268.8046875)"/>
<path d="M0 0 C0.33 0 0.66 0 1 0 C1.12375 0.969375 1.2475 1.93875 1.375 2.9375 C1.58125 3.948125 1.7875 4.95875 2 6 C2.66 6.33 3.32 6.66 4 7 C4 6.01 4 5.02 4 4 C4.66 4.33 5.32 4.66 6 5 C5.01 7.31 4.02 9.62 3 12 C0.69 12 -1.62 12 -4 12 C-2.68 8.04 -1.36 4.08 0 0 Z " fill="#1E76AF" transform="translate(96,134)"/>
<path d="M0 0 C-0.66 0.66 -1.32 1.32 -2 2 C2.62 2 7.24 2 12 2 C12 2.33 12 2.66 12 3 C10.43883181 3.33951619 8.87598662 3.67132544 7.3125 4 C6.00732422 4.2784375 6.00732422 4.2784375 4.67578125 4.5625 C1.99452905 5.00089452 -0.294952 5.28710294 -3 5 C-3.46019531 4.51917969 -3.92039063 4.03835937 -4.39453125 3.54296875 C-6.8798996 1.1543544 -9.32357227 1.47903108 -12.6875 1.3125 C-14.45673828 1.21388672 -14.45673828 1.21388672 -16.26171875 1.11328125 C-17.16535156 1.07589844 -18.06898437 1.03851563 -19 1 C-19 0.67 -19 0.34 -19 0 C-12.43507888 -0.78441153 -6.53162622 -1.10914408 0 0 Z " fill="#2D79AB" transform="translate(134,148)"/>
<path d="M0 0 C1.125 1.75 1.125 1.75 2 4 C1.125 6.25 1.125 6.25 0 8 C-0.66 8 -1.32 8 -2 8 C-2 8.99 -2 9.98 -2 11 C-2.99 10.67 -3.98 10.34 -5 10 C-5.3125 7.25 -5.3125 7.25 -5 4 C-2.5 1.625 -2.5 1.625 0 0 Z " fill="#066DB2" transform="translate(102,130)"/>
<path d="M0 0 C0.33 1.32 0.66 2.64 1 4 C1.66 4 2.32 4 3 4 C2.690625 4.969375 2.38125 5.93875 2.0625 6.9375 C0.82032903 11.23664491 0.38315147 15.55342634 0 20 C-0.33 20 -0.66 20 -1 20 C-1 17.03 -1 14.06 -1 11 C-1.66 11 -2.32 11 -3 11 C-1.125 3.375 -1.125 3.375 0 0 Z " fill="#C7E7F4" transform="translate(122,119)"/>
<path d="M0 0 C3.125 0.375 3.125 0.375 6 1 C6 2.32 6 3.64 6 5 C6.66 5.33 7.32 5.66 8 6 C7.443125 5.814375 6.88625 5.62875 6.3125 5.4375 C3.600867 4.92448835 1.65628961 5.3359276 -1 6 C-1.625 4.125 -1.625 4.125 -2 2 C-1.34 1.34 -0.68 0.68 0 0 Z " fill="#878787" transform="translate(100,269)"/>
<path d="M0 0 C0.75732422 0.00966797 1.51464844 0.01933594 2.29492188 0.02929688 C3.08060547 0.05443359 3.86628906 0.07957031 4.67578125 0.10546875 C5.87170898 0.12577148 5.87170898 0.12577148 7.09179688 0.14648438 C9.05758092 0.18179786 11.02301707 0.23560428 12.98828125 0.29296875 C12.65828125 1.61296875 12.32828125 2.93296875 11.98828125 4.29296875 C11.98828125 3.30296875 11.98828125 2.31296875 11.98828125 1.29296875 C10.89515625 1.62296875 9.80203125 1.95296875 8.67578125 2.29296875 C3.45937693 3.62282407 -1.66420344 3.46990859 -7.01171875 3.29296875 C-4.74810376 0.60821609 -3.50571314 -0.07907624 0 0 Z " fill="#CEEEF9" transform="translate(174.01171875,134.70703125)"/>
<path d="M0 0 C0 2.64 0 5.28 0 8 C-0.66 8 -1.32 8 -2 8 C-2.66 9.32 -3.32 10.64 -4 12 C-4.33 8.37 -4.66 4.74 -5 1 C-2 0 -2 0 0 0 Z " fill="#0B6CAC" transform="translate(158,111)"/>
<path d="M0 0 C2.97 0 5.94 0 9 0 C8.01 0.495 8.01 0.495 7 1 C7 2.65 7 4.3 7 6 C6.34 6 5.68 6 5 6 C5 5.01 5 4.02 5 3 C3.68 3 2.36 3 1 3 C1 3.66 1 4.32 1 5 C1.99 4.67 2.98 4.34 4 4 C4 4.66 4 5.32 4 6 C2.68 6 1.36 6 0 6 C-1.125 2.25 -1.125 2.25 0 0 Z " fill="#919191" transform="translate(80,269)"/>
<path d="M0 0 C0.99 0.33 1.98 0.66 3 1 C2.40606618 2.29640378 1.79942011 3.58698839 1.1875 4.875 C0.85105469 5.59429687 0.51460937 6.31359375 0.16796875 7.0546875 C-1 9 -1 9 -4 11 C-4.99 10.34 -5.98 9.68 -7 9 C-6.57847656 8.51789063 -6.15695313 8.03578125 -5.72265625 7.5390625 C-5.17480469 6.90742187 -4.62695312 6.27578125 -4.0625 5.625 C-3.51722656 4.99851562 -2.97195312 4.37203125 -2.41015625 3.7265625 C-0.93041376 2.04367666 -0.93041376 2.04367666 0 0 Z " fill="#2875A7" transform="translate(185,121)"/>
<path d="M0 0 C-0.60990891 3.55780196 -1.5783681 6.6828589 -3 10 C-3.66 8.68 -4.32 7.36 -5 6 C-5.99 6.33 -6.98 6.66 -8 7 C-7.62005832 4.24542282 -7.1926367 3.17979426 -5.125 1.25 C-3 0 -3 0 0 0 Z " fill="#D3F1FA" transform="translate(103,116)"/>
<path d="M0 0 C0.99 0 1.98 0 3 0 C3 2.31 3 4.62 3 7 C2.01 7.33 1.02 7.66 0 8 C-0.66 8.99 -1.32 9.98 -2 11 C-3.13643966 7.59068103 -2.86747764 6.99664544 -1.5625 3.8125 C-1.13130859 2.73935547 -1.13130859 2.73935547 -0.69140625 1.64453125 C-0.46324219 1.10183594 -0.23507813 0.55914062 0 0 Z " fill="#E1F5FC" transform="translate(118,130)"/>
<path d="M0 0 C0.99 0.33 1.98 0.66 3 1 C2.01 5.29 1.02 9.58 0 14 C-0.33 14 -0.66 14 -1 14 C-1 12.02 -1 10.04 -1 8 C-1.66 8 -2.32 8 -3 8 C-1.125 1.125 -1.125 1.125 0 0 Z " fill="#D7F3FC" transform="translate(156,120)"/>
<path d="M0 0 C2.125 0.375 2.125 0.375 4 1 C3.34 2.98 2.68 4.96 2 7 C1.34 6.01 0.68 5.02 0 4 C-0.33 4.99 -0.66 5.98 -1 7 C-1.99 7 -2.98 7 -4 7 C-2.92598892 4.08482708 -2.22189824 2.22189824 0 0 Z " fill="#D5F2FA" transform="translate(134,122)"/>
<path d="M0 0 C-0.66 1.98 -1.32 3.96 -2 6 C-2.66 5.34 -3.32 4.68 -4 4 C-7.58343976 3.83322718 -7.58343976 3.83322718 -11 4 C-11 3.34 -11 2.68 -11 2 C-12.65 2 -14.3 2 -16 2 C-16 1.67 -16 1.34 -16 1 C-10.43037975 0.87341772 -10.43037975 0.87341772 -7.875 1.625 C-4.74823282 2.25035344 -3.09166578 0 0 0 Z " fill="#307BAE" transform="translate(148,115)"/>
<path d="M0 0 C1 3 1 3 0.5 5.125 C-1 7 -1 7 -4.625 7.75 C-5.73875 7.8325 -6.8525 7.915 -8 8 C-7.67 6.35 -7.34 4.7 -7 3 C-6.34 3 -5.68 3 -5 3 C-5 3.66 -5 4.32 -5 5 C-3.68 5 -2.36 5 -1 5 C-0.67 3.35 -0.34 1.7 0 0 Z " fill="#1F72AA" transform="translate(86,140)"/>
<path d="M0 0 C0.66 0.33 1.32 0.66 2 1 C2 1.66 2 2.32 2 3 C2.31478446 4.33783393 2.64587656 5.67203709 3 7 C1.68 7.33 0.36 7.66 -1 8 C-1.625 5.6875 -1.625 5.6875 -2 3 C-1.34 2.01 -0.68 1.02 0 0 Z " fill="#7D7D7D" transform="translate(162,267)"/>
<path d="M0 0 C2.0625 0.4375 2.0625 0.4375 4 1 C3.6875 3.375 3.6875 3.375 3 6 C2.01 6.66 1.02 7.32 0 8 C-0.38063221 5.6739143 -0.71269945 3.33944736 -1 1 C-0.67 0.67 -0.34 0.34 0 0 Z " fill="#828282" transform="translate(155,267)"/>
<path d="M0 0 C2.0625 0.4375 2.0625 0.4375 4 1 C3.6875 3.375 3.6875 3.375 3 6 C2.01 6.66 1.02 7.32 0 8 C-0.38063221 5.6739143 -0.71269945 3.33944736 -1 1 C-0.67 0.67 -0.34 0.34 0 0 Z " fill="#818181" transform="translate(203,267)"/>
<path d="M0 0 C2.0625 0.4375 2.0625 0.4375 4 1 C3.6875 3.375 3.6875 3.375 3 6 C2.01 6.66 1.02 7.32 0 8 C-0.38063221 5.6739143 -0.71269945 3.33944736 -1 1 C-0.67 0.67 -0.34 0.34 0 0 Z " fill="#828282" transform="translate(197,267)"/>
<path d="M0 0 C0.93423645 3.01031744 1.04449911 3.86650268 0 7 C0.99 7.33 1.98 7.66 3 8 C1.6875 9.5 1.6875 9.5 0 11 C-0.99 11 -1.98 11 -3 11 C-2.44894091 7.0507432 -1.61064629 3.65079826 0 0 Z " fill="#C9EBF9" transform="translate(144,124)"/>
<path d="M0 0 C0.66 0.33 1.32 0.66 2 1 C0.02 5.95 -1.96 10.9 -4 16 C-5.17744094 11.29023622 -4.4890573 10.07300662 -2.5625 5.75 C-2.08941406 4.67234375 -1.61632812 3.5946875 -1.12890625 2.484375 C-0.75636719 1.66453125 -0.38382812 0.8446875 0 0 Z " fill="#D4EFF9" transform="translate(114,119)"/>
<path d="M0 0 C1.32 0.33 2.64 0.66 4 1 C3.67 2.65 3.34 4.3 3 6 C3.66 6.33 4.32 6.66 5 7 C4.34 7 3.68 7 3 7 C3 8.65 3 10.3 3 12 C2.01 11.34 1.02 10.68 0 10 C0.66666667 7.33333333 1.33333333 4.66666667 2 2 C0.68 2.33 -0.64 2.66 -2 3 C-1.34 2.01 -0.68 1.02 0 0 Z " fill="#297CB3" transform="translate(156,109)"/>
<path d="M0 0 C2.875 -0.125 2.875 -0.125 6 0 C6.66 0.66 7.32 1.32 8 2 C6.02 2.33 4.04 2.66 2 3 C3.32 3.99 4.64 4.98 6 6 C3.69 6 1.38 6 -1 6 C-0.67 4.02 -0.34 2.04 0 0 Z " fill="#156AA3" transform="translate(73,99)"/>
<path d="M0 0 C0.66 0.33 1.32 0.66 2 1 C5.67329964 1.13357453 8.49852959 1.1671568 12 0 C11.67 0.99 11.34 1.98 11 3 C3.08 3.495 3.08 3.495 -5 4 C-3.35 2.68 -1.7 1.36 0 0 Z " fill="#D4F1FB" transform="translate(133,138)"/>
<path d="M0 0 C0.66 0 1.32 0 2 0 C2.625 2.875 2.625 2.875 3 6 C2.34 6.66 1.68 7.32 1 8 C1 7.34 1 6.68 1 6 C0.2575 6.33 -0.485 6.66 -1.25 7 C-4 8 -4 8 -8 8 C-7.67 6.68 -7.34 5.36 -7 4 C-7 4.99 -7 5.98 -7 7 C-6.01 6.34 -5.02 5.68 -4 5 C-1.3125 4.875 -1.3125 4.875 1 5 C0.67 3.35 0.34 1.7 0 0 Z " fill="#454545" transform="translate(180,267)"/>
<path d="M0 0 C0.33 0.66 0.66 1.32 1 2 C1.99 2 2.98 2 4 2 C4.33 1.34 4.66 0.68 5 0 C5 0.66 5 1.32 5 2 C5.66 2.33 6.32 2.66 7 3 C6.34 3 5.68 3 5 3 C5 4.32 5 5.64 5 7 C5.66 7.33 6.32 7.66 7 8 C6.01 8 5.02 8 4 8 C4 6.35 4 4.7 4 3 C3.01 3 2.02 3 1 3 C1 4.32 1 5.64 1 7 C1.66 7.33 2.32 7.66 3 8 C2.01 8 1.02 8 0 8 C0 5.36 0 2.72 0 0 Z " fill="#4C4C4C" transform="translate(72,267)"/>
<path d="M0 0 C2 3 2 3 4 6 C7.06556598 6.73343428 7.06556598 6.73343428 10 7 C9.67 7.66 9.34 8.32 9 9 C5.625 8.6875 5.625 8.6875 2 8 C-0.1519437 4.77208445 -0.20086443 3.71599191 0 0 Z " fill="#2C79AC" transform="translate(118,154)"/>
<path d="M0 0 C1.670625 0.061875 1.670625 0.061875 3.375 0.125 C3.375 0.455 3.375 0.785 3.375 1.125 C1.395 1.125 -0.585 1.125 -2.625 1.125 C-2.955 4.095 -3.285 7.065 -3.625 10.125 C-4.285 9.795 -4.945 9.465 -5.625 9.125 C-5.75 5.75 -5.75 5.75 -5.625 2.125 C-3.625 0.125 -3.625 0.125 0 0 Z " fill="#156CA5" transform="translate(172.625,142.875)"/>
<path d="M0 0 C1.1875 1.5625 1.1875 1.5625 2 4 C0.625 7.75 0.625 7.75 -1 11 C-2.1875 9.4375 -2.1875 9.4375 -3 7 C-1.625 3.25 -1.625 3.25 0 0 Z " fill="#2878AD" transform="translate(153,119)"/>
<path d="M0 0 C2 0.25 2 0.25 4 1 C4.33 1.99 4.66 2.98 5 4 C3.35 4.33 1.7 4.66 0 5 C-0.5625 3.0625 -0.5625 3.0625 -1 1 C-0.67 0.67 -0.34 0.34 0 0 Z " fill="#B0B0B0" transform="translate(119,270)"/>
<path d="M0 0 C0.66 0 1.32 0 2 0 C2.6875 3.25 2.6875 3.25 3 7 C2.01 8.32 1.02 9.64 0 11 C0 7.37 0 3.74 0 0 Z " fill="#D4F1FB" transform="translate(151,112)"/>
<path d="M0 0 C-1.32 0.33 -2.64 0.66 -4 1 C-4 1.66 -4 2.32 -4 3 C-6.64 3 -9.28 3 -12 3 C-11.67 2.34 -11.34 1.68 -11 1 C-7.318488 -0.05186057 -3.80944893 -0.08859184 0 0 Z " fill="#14679F" transform="translate(180,138)"/>
<path d="M0 0 C0.721875 0.144375 1.44375 0.28875 2.1875 0.4375 C3.5796875 0.7159375 3.5796875 0.7159375 5 1 C6.66666667 1.33333333 8.33333333 1.66666667 10 2 C8.68 2.99 7.36 3.98 6 5 C5.34 4.34 4.68 3.68 4 3 C1.93125966 2.3574765 1.93125966 2.3574765 0 2 C0 1.34 0 0.68 0 0 Z " fill="#CEF0FA" transform="translate(105,107)"/>
<path d="M0 0 C0 0.99 0 1.98 0 3 C-2.64 3.66 -5.28 4.32 -8 5 C-8 4.01 -8 3.02 -8 2 C-2.25 0 -2.25 0 0 0 Z " fill="#C2C2C2" transform="translate(181,269)"/>
<path d="M0 0 C3.1875 0.3125 3.1875 0.3125 6 1 C6 1.66 6 2.32 6 3 C3.03 3 0.06 3 -3 3 C-2.01 2.01 -1.02 1.02 0 0 Z " fill="#EBFDFF" transform="translate(170,135)"/>
<path d="M0 0 C-0.33 1.32 -0.66 2.64 -1 4 C-1.66 4 -2.32 4 -3 4 C-3.99 4.66 -4.98 5.32 -6 6 C-6 5.01 -6 4.02 -6 3 C-2.66666667 0 -2.66666667 0 0 0 Z " fill="#C4EAF8" transform="translate(117,114)"/>
<path d="M0 0 C3 1 3 1 4 3 C3.01 3 2.02 3 1 3 C1 3.66 1 4.32 1 5 C1.99 4.67 2.98 4.34 4 4 C4 4.66 4 5.32 4 6 C2.68 6 1.36 6 0 6 C-1.125 2.25 -1.125 2.25 0 0 Z " fill="#5A5A5A" transform="translate(80,269)"/>
<path d="M0 0 C0 2.31 0 4.62 0 7 C-0.66 6.67 -1.32 6.34 -2 6 C-2 5.01 -2 4.02 -2 3 C-3.65 3 -5.3 3 -7 3 C-7 2.67 -7 2.34 -7 2 C-1.125 0 -1.125 0 0 0 Z " fill="#B2E2F6" transform="translate(167,145)"/>
<path d="M0 0 C0.66 0 1.32 0 2 0 C1.44271087 3.34373475 0.64826111 6.03312999 -1 9 C-2.25541557 5.23375329 -1.37061958 3.62811066 0 0 Z " fill="#1D74AC" transform="translate(87,122)"/>
<path d="M0 0 C0.66 0 1.32 0 2 0 C2.25 5.625 2.25 5.625 0 9 C-0.66 9 -1.32 9 -2 9 C-1.34 6.03 -0.68 3.06 0 0 Z " fill="#D7F1FA" transform="translate(147,114)"/>
<path d="M0 0 C0.99 0.495 0.99 0.495 2 1 C1.67 1.66 1.34 2.32 1 3 C1.99 3 2.98 3 4 3 C3.34 5.31 2.68 7.62 2 10 C0.89131683 6.67395049 0.45822468 3.46941546 0 0 Z " fill="#BFE5F5" transform="translate(171,108)"/>
</svg>
